<?xml version="1.0" encoding="UTF-8"?>
<svg id="Logo" xmlns="http://www.w3.org/2000/svg" version="1.1" viewBox="0 0 35.7 18.9">
  <!-- Generator: Adobe Illustrator 30.2.0, SVG Export Plug-In . SVG Version: 2.1.1 Build 105)  -->
  <defs>
    <style>
      .st0 {
        fill: #00354e;
      }

      .st1 {
        fill: #95c11f;
      }

      .st2 {
        fill: #5d92aa;
      }
    </style>
  </defs>
  <g>
    <path class="st0" d="M2.9,16H.9l-.4,1.3H0l1.6-5.3h.5l1.6,5.3h-.5l-.4-1.3ZM1,15.6h1.8l-.9-3.1-.9,3.1Z"/>
    <path class="st0" d="M4.4,18.1c.3.3.6.5,1,.5s1-.3,1-1.1v-.7c-.2.4-.6.7-1,.7-.9,0-1.4-.8-1.4-2s.5-2,1.4-2,.8.2,1,.7v-.6h.4v4c0,1.1-.6,1.5-1.4,1.5s-.9-.1-1.2-.5l.2-.3ZM6.5,14.4c-.2-.4-.6-.7-1-.7-.7,0-1,.8-1,1.7s.3,1.7,1,1.7.8-.4,1-.7v-1.9Z"/>
    <path class="st0" d="M7.9,13.5h.4v.7c.3-.4.6-.7,1.1-.7v.4c0,0-.1,0-.2,0-.4,0-.8.3-.9.7v2.8h-.4v-3.9Z"/>
    <path class="st0" d="M11.9,16.9c-.3.4-.6.5-1,.5-.6,0-1.2-.5-1.2-1.3s.5-1.3,1.2-1.3.8.2,1,.5v-.8c0-.6-.3-.9-.8-.9s-.7.1-1,.5l-.2-.3c.4-.4.8-.6,1.2-.6.7,0,1.2.4,1.2,1.2v2.8h-.4v-.4ZM11.9,15.7c-.2-.4-.6-.5-.9-.5-.5,0-.8.4-.8,1s.3,1,.8,1,.7-.2.9-.5v-.8Z"/>
    <path class="st0" d="M13.3,13.5h.4v.7c.3-.4.6-.7,1.1-.7v.4c0,0-.1,0-.2,0-.4,0-.8.3-.9.7v2.8h-.4v-3.9Z"/>
    <path class="st0" d="M16.6,13.4c1,0,1.5.9,1.5,2h0c0,.1-2.5.1-2.5.1,0,.9.5,1.6,1.2,1.6s.7-.2,1-.5l.2.2c-.3.4-.7.6-1.2.6-1,0-1.6-.9-1.6-2s.6-2,1.5-2ZM15.6,15.2h2.1c0-.7-.3-1.5-1.1-1.5s-1,.9-1.1,1.5Z"/>
    <path class="st0" d="M21,14.5c0-.6-.3-.8-.7-.8s-.8.3-1,.7v2.9h-.4v-3.9h.4v.6c.2-.3.7-.7,1.1-.7s1,.3,1,1v2.9h-.4v-2.8Z"/>
    <path class="st0" d="M23.6,13.4c1,0,1.5.9,1.5,2h0c0,.1-2.5.1-2.5.1,0,.9.5,1.6,1.2,1.6s.7-.2,1-.5l.2.2c-.3.4-.7.6-1.2.6-1,0-1.6-.9-1.6-2s.6-2,1.5-2ZM22.6,15.2h2.1c0-.7-.3-1.5-1.1-1.5s-1,.9-1.1,1.5Z"/>
    <path class="st0" d="M25.9,13.5h.4v.7c.3-.4.6-.7,1.1-.7v.4c0,0-.1,0-.2,0-.4,0-.8.3-.9.7v2.8h-.4v-3.9Z"/>
    <path class="st0" d="M28.1,18.1c.3.3.6.5,1,.5s1-.3,1-1.1v-.7c-.2.4-.6.7-1,.7-.9,0-1.4-.8-1.4-2s.5-2,1.4-2,.8.2,1,.7v-.6h.4v4c0,1.1-.6,1.5-1.4,1.5s-.9-.1-1.2-.5l.2-.3ZM30.2,14.4c-.2-.4-.6-.7-1-.7-.7,0-1,.8-1,1.7s.3,1.7,1,1.7.8-.4,1-.7v-1.9Z"/>
    <path class="st0" d="M31.4,12.5c0-.2.1-.3.3-.3s.3.1.3.3-.1.3-.3.3-.3-.1-.3-.3ZM31.5,13.5h.4v3.9h-.4v-3.9Z"/>
    <path class="st0" d="M34.2,13.4c1,0,1.5.9,1.5,2h0c0,.1-2.5.1-2.5.1,0,.9.5,1.6,1.2,1.6s.7-.2,1-.5l.2.2c-.3.4-.7.6-1.2.6-1,0-1.6-.9-1.6-2s.6-2,1.5-2ZM33.2,15.2h2.1c0-.7-.3-1.5-1.1-1.5s-1,.9-1.1,1.5Z"/>
  </g>
  <g>
    <path class="st1" d="M20.4,1.1c0,.1-.1.2-.2.4,0,0,0,.2-.1.2,0,0,0,.2-.1.3,0,.2-.2.4-.3.5,0,0-.1.2-.2.3,0,0,0,0-.1.1,0,0,0,0-.1.1-.2.2-.4.3-.6.5-.2.1-.4.3-.7.4-.2.1-.5.2-.7.4,0,0,0,0,0,0-.2.1-1.2.6-1.6,1.1-1,1.3-.4,5.2-.4,5.2,0,.1,0,.2,0,.3,0,0,0,0,0,0,0,0,0-.1,0-.4,0-.1,0-.2.1-.4,0,0,0-.2,0-.2,0,0,0,0,0-.1,0,0,0,0,0-.1,0-.2.2-.3.4-.5.1-.1.3-.3.5-.4.4-.2.9-.4,1.4-.6.3-.1.5-.3.8-.4.2-.2.5-.4.7-.6,0-.1.2-.2.3-.3,0-.1.1-.2.2-.3.1-.2.2-.4.3-.6,0-.2.1-.4.2-.6,0-.2,0-.3,0-.4,0-.2,0-.4,0-.4,0,0,0,.1-.2.3,0,.1-.1.2-.2.4,0,0,0,.1-.1.2,0,0,0,.2-.1.2-.1.2-.2.3-.4.5,0,0-.1.2-.2.3,0,0-.2.2-.2.2-.2.2-.4.3-.6.4-.2.1-.4.3-.7.4-.2.1-.5.2-.7.3-.2.1-.5.2-.7.4-.2.2-.5.3-.6.6,0,0,0,0,0,0,0-.2,0-.5,0-.6,0,0,0-.2,0-.2,0,0,0,0,0-.1,0,0,0,0,0-.1,0-.2.2-.3.3-.5.1-.1.3-.3.5-.4.4-.2.9-.4,1.4-.7.3-.1.5-.3.7-.5.2-.2.5-.4.6-.6,0-.1.2-.2.3-.3,0-.1.1-.2.2-.3.1-.2.2-.4.3-.6,0-.2.1-.4.1-.6,0-.2,0-.3,0-.4,0-.2,0-.4,0-.4,0,0,0,.1-.2.3,0,.1-.1.2-.2.4,0,0,0,.2-.1.2,0,0,0,.2-.1.2,0,.2-.2.3-.3.5,0,0-.1.2-.2.3,0,0-.2.2-.2.2-.2.2-.4.3-.6.4-.2.1-.4.3-.7.4-.2.1-.5.2-.7.4-.2.1-.5.3-.7.4-.2.2-.4.4-.6.6,0,0-.1.2-.2.3,0,0,0,0,0,0,0,0,0-.1,0-.4,0-.1,0-.3,0-.4,0,0,0-.2,0-.2,0,0,0,0,0-.1,0,0,0,0,0-.1.2-.3.5-.6.9-.9.4-.2.9-.4,1.4-.7.3-.1.5-.3.8-.5.2-.2.5-.4.6-.6,0-.1.2-.2.3-.3,0-.1.1-.2.2-.3.1-.2.2-.4.3-.7,0-.2.1-.4.1-.6,0-.2,0-.3,0-.4,0-.2,0-.4,0-.4,0,0,0,.1-.2.4Z"/>
    <path class="st2" d="M17.7,2.8c0-.8-.5-1.4-1-2-.2-.3-.4-.5-.5-.8,0,0,0,0,0,0h0s0,0,0,0c0,0,0,0,0,0-.1.2-.3.5-.5.8-.5.6-1,1.2-1,2,0,0,0,0,0,0,0,.8.6,1.3,1,1.6-.2-.2-.4-.5-.4-1,0-.8.7-1.4.9-2,.2.5.9,1.1.9,2,0,.2,0,.4-.1.5.4-.3.7-.6.7-1.2,0,0,0,0,0,0Z"/>
  </g>
  <g>
    <path class="st0" d="M2.8,8.4h-1.6v2.2H0v-5.3h1.3v2h1.6v-2h1.3v5.3h-1.3v-2.2Z"/>
    <path class="st0" d="M7.6,8.4h-1.6v2.2h-1.3v-5.3h1.3v2h1.6v-2h1.3v5.3h-1.3v-2.2Z"/>
    <path class="st0" d="M9.6,5.3h2.4c1,0,1.5.7,1.5,1.4s-.4,1.1-.9,1.2c.6,0,1,.6,1,1.3s-.5,1.4-1.5,1.4h-2.5v-5.3ZM11.7,7.4c.3,0,.5-.2.5-.5s-.2-.5-.5-.5h-.8v1h.8ZM11.8,9.5c.3,0,.5-.2.5-.6s-.2-.5-.5-.5h-.9v1.1h.9Z"/>
  </g>
</svg>