<?xml version="1.0" encoding="utf-8"?>
<!-- Generator: Adobe Illustrator 25.3.1, SVG Export Plug-In . SVG Version: 6.00 Build 0)  -->
<svg version="1.1" id="Ebene_1" xmlns="http://www.w3.org/2000/svg" xmlns:xlink="http://www.w3.org/1999/xlink" x="0px" y="0px"
	 viewBox="0 0 85 85" style="enable-background:new 0 0 85 85;" xml:space="preserve">
<style type="text/css">
	.st0{enable-background:new    ;}
	.st1{fill:#FFFFFF;}
	.st2{fill:none;stroke:#FFFFFF;stroke-width:0.75;}
	.st3{fill:#00B3EC;}
	.st4{fill:none;stroke:#FFFFFF;stroke-linejoin:round;}
</style>
<g class="st0">
	<path class="st1" d="M7.6,68.7h0.3c0.1,0,0.1,0,0.1,0.1l1.2,3.9l0,0l1.2-3.9c0-0.1,0.1-0.1,0.1-0.1h0.3c0.1,0,0.1,0,0.1,0.1
		l-1.4,4.3c0,0.1-0.1,0.1-0.1,0.1H9c-0.1,0-0.1,0-0.1-0.1l-1.4-4.3C7.5,68.7,7.6,68.7,7.6,68.7z"/>
	<path class="st1" d="M13.6,73.2h-0.8c-0.4,0-0.7-0.1-0.9-0.3c-0.2-0.2-0.3-0.5-0.3-0.9v-2c0-0.4,0.1-0.7,0.3-0.9
		c0.2-0.2,0.5-0.3,0.9-0.3h0.8c0.4,0,0.7,0.1,0.9,0.3c0.2,0.2,0.3,0.5,0.3,0.9v2c0,0.4-0.1,0.7-0.3,0.9S14,73.2,13.6,73.2z
		 M12.9,72.8h0.7c0.3,0,0.5-0.1,0.6-0.2s0.2-0.4,0.2-0.6v-2c0-0.3-0.1-0.5-0.2-0.6c-0.1-0.2-0.4-0.2-0.6-0.2h-0.7
		c-0.3,0-0.5,0.1-0.6,0.2s-0.2,0.4-0.2,0.6v2c0,0.3,0.1,0.5,0.2,0.6S12.6,72.8,12.9,72.8z"/>
	<path class="st1" d="M16.4,73.2h-0.3c-0.1,0-0.1,0-0.1-0.1v-4.3c0-0.1,0-0.1,0.1-0.1h0.3c0.1,0,0.1,0,0.1,0.1v0.4l0,0
		c0.2-0.3,0.5-0.5,0.9-0.5H18c0.4,0,0.7,0.1,0.9,0.3c0.2,0.2,0.3,0.5,0.3,0.9V73c0,0.1,0,0.1-0.1,0.1h-0.3c-0.1,0-0.1,0-0.1-0.1
		v-3.1c0-0.3-0.1-0.5-0.2-0.6s-0.3-0.2-0.6-0.2h-0.6c-0.3,0-0.5,0.1-0.7,0.2c0,0.2-0.1,0.4-0.1,0.6V73
		C16.5,73.1,16.5,73.2,16.4,73.2z"/>
</g>
<g class="st0">
	<path class="st1" d="M23.2,73.2h-0.3c-0.1,0-0.1,0-0.1-0.1v-5.4c0-0.1,0-0.1,0.1-0.1h0.3c0.1,0,0.1,0,0.1,0.1v2.4
		c0,0.1,0,0.1,0.1,0.1h2.5c0.1,0,0.1,0,0.1-0.1v-2.4c0-0.1,0-0.1,0.1-0.1h0.3c0.1,0,0.1,0,0.1,0.1v5.4c0,0.1,0,0.1-0.1,0.1h-0.3
		c-0.1,0-0.1,0-0.1-0.1v-2.5c0-0.1,0-0.1-0.1-0.1h-2.5c-0.1,0-0.1,0-0.1,0.1L23.2,73.2L23.2,73.2z"/>
	<path class="st1" d="M29.7,73.2h-0.8c-0.4,0-0.7-0.1-0.9-0.3c-0.2-0.2-0.3-0.5-0.3-0.9v-2c0-0.4,0.1-0.7,0.3-0.9
		c0.2-0.2,0.5-0.3,0.9-0.3h0.8c0.4,0,0.7,0.1,0.9,0.3c0.2,0.2,0.3,0.5,0.3,0.9v2c0,0.4-0.1,0.7-0.3,0.9C30.3,73.1,30,73.2,29.7,73.2
		z M28.9,72.8h0.7c0.3,0,0.5-0.1,0.6-0.2s0.2-0.4,0.2-0.6v-2c0-0.3-0.1-0.5-0.2-0.6c-0.1-0.2-0.4-0.2-0.6-0.2h-0.7
		c-0.3,0-0.5,0.1-0.6,0.2s-0.2,0.4-0.2,0.6v2c0,0.3,0.1,0.5,0.2,0.6S28.7,72.8,28.9,72.8z"/>
	<path class="st1" d="M33,68.7h0.8c0.1,0,0.1,0,0.1,0.1V69c0,0.1,0,0.1-0.1,0.1H33c-0.1,0-0.1,0-0.1,0.1v3.9c0,0.1,0,0.1-0.1,0.1
		h-0.3c-0.1,0-0.1,0-0.1-0.1v-3.9c0-0.1,0-0.1-0.1-0.1h-0.6c-0.1,0-0.1,0-0.1-0.1v-0.2c0-0.1,0-0.1,0.1-0.1h0.6c0.1,0,0.1,0,0.1-0.1
		v-0.4c0-0.8,0.4-1.2,1.1-1.2h0.2c0.1,0,0.1,0,0.1,0.1v0.2c0,0.1,0,0.1-0.1,0.1h-0.2c-0.3,0-0.4,0.1-0.6,0.2
		c-0.1,0.1-0.2,0.4-0.2,0.6L33,68.7L33,68.7z"/>
</g>
<g class="st0">
	<path class="st1" d="M37.5,73.2h-0.3c-0.1,0-0.1,0-0.1-0.1v-5.4c0-0.1,0-0.1,0.1-0.1h0.3c0.1,0,0.1,0,0.1,0.1v2.4
		c0,0.1,0,0.1,0.1,0.1h2.5c0.1,0,0.1,0,0.1-0.1v-2.4c0-0.1,0-0.1,0.1-0.1h0.1c0.1,0,0.1,0,0.1,0.1v5.4c0,0.1,0,0.1-0.1,0.1h-0.3
		c-0.1,0-0.1,0-0.1-0.1v-2.5c0-0.1,0-0.1-0.1-0.1h-2.5c-0.1,0-0.1,0-0.1,0.1L37.5,73.2C37.6,73.1,37.5,73.2,37.5,73.2z"/>
	<path class="st1" d="M44,73.2h-0.8c-0.4,0-0.7-0.1-0.9-0.3C42.1,72.7,42,72.4,42,72v-2c0-0.4,0.1-0.7,0.3-0.9
		c0.2-0.2,0.5-0.3,0.9-0.3H44c0.4,0,0.7,0.1,0.9,0.3c0.2,0.2,0.3,0.5,0.3,0.9v2c0,0.4-0.1,0.7-0.3,0.9C44.6,73.1,44.3,73.2,44,73.2z
		 M43.2,72.8h0.7c0.3,0,0.5-0.1,0.6-0.2s0.2-0.4,0.2-0.6v-2c0-0.3-0.1-0.5-0.2-0.6c-0.1-0.2-0.4-0.2-0.6-0.2h-0.7
		c-0.3,0-0.5,0.1-0.6,0.2s-0.2,0.4-0.2,0.6v2c0,0.3,0.1,0.5,0.2,0.6S43,72.8,43.2,72.8z"/>
	<path class="st1" d="M46.8,73.2h-0.3c-0.1,0-0.1,0-0.1-0.1v-6c0-0.1,0-0.1,0.1-0.1h0.3c0.1,0,0.1,0,0.1,0.1L46.8,73.2
		C46.9,73.1,46.9,73.2,46.8,73.2z"/>
	<path class="st1" d="M48.5,69.1H48c-0.1,0-0.1,0-0.1-0.1v-0.2c0-0.1,0-0.1,0.1-0.1h0.5c0.1,0,0.1,0,0.1-0.1v-0.7
		c0-0.1,0-0.1,0.1-0.1H49c0.1,0,0.1,0,0.1,0.1v0.7c0,0.1,0,0.1,0.1,0.1h1c0.1,0,0.1,0,0.1,0.1V69c0,0.1,0,0.1-0.1,0.1h-1
		c-0.1,0-0.1,0-0.1,0.1V72c0,0.3,0.1,0.5,0.2,0.6s0.4,0.2,0.6,0.2h0.3c0.1,0,0.1,0,0.1,0.1v0.2c0,0.1,0,0.1-0.1,0.1h-0.4
		c-0.4,0-0.7-0.1-0.9-0.3c-0.2-0.2-0.4-0.5-0.4-0.9L48.5,69.1L48.5,69.1z"/>
	<path class="st1" d="M54.3,73.2h-1.8c-0.4,0-0.7-0.1-0.9-0.3c-0.2-0.2-0.3-0.5-0.3-0.9v-2c0-0.4,0.1-0.7,0.3-0.9
		c0.2-0.2,0.5-0.3,0.9-0.3h0.8c0.4,0,0.7,0.1,0.9,0.3c0.2,0.2,0.3,0.5,0.3,0.9v1.1c0,0.1,0,0.1-0.1,0.1h-2.6c-0.1,0-0.1,0-0.1,0.1
		V72c0,0.3,0.1,0.5,0.2,0.6s0.3,0.2,0.6,0.2h1.8c0.1,0,0.1,0,0.1,0.1L54.3,73.2C54.4,73.1,54.4,73.2,54.3,73.2z M51.7,70.8h2.2
		c0.1,0,0.1,0,0.1-0.1v-0.8c0-0.3-0.1-0.5-0.2-0.6c-0.1-0.2-0.3-0.2-0.6-0.2h-0.7c-0.3,0-0.5,0.1-0.6,0.2s-0.2,0.4-0.2,0.6
		L51.7,70.8L51.7,70.8z"/>
	<path class="st1" d="M56,73.2h-0.3c-0.1,0-0.1,0-0.1-0.1v-4.3c0-0.1,0-0.1,0.1-0.1H56c0.1,0,0.1,0,0.1,0.1v0.4l0,0
		c0.1-0.1,0.2-0.2,0.3-0.3s0.4-0.1,0.6-0.1h0.3c0.1,0,0.1,0,0.1,0.1v0.2c0,0.1,0,0.1-0.1,0.1h-0.4c-0.3,0-0.5,0.1-0.7,0.3
		C56,69.7,56,69.9,56,70.2L56,73.2C56.1,73.1,56.1,73.2,56,73.2z"/>
</g>
<g class="st0">
	<path class="st1" d="M58.6,73.2h-0.3c-0.1,0-0.1,0-0.1-0.1v-4.3c0-0.1,0-0.1,0.1-0.1h0.3c0.1,0,0.1,0,0.1,0.1v0.4l0,0
		c0.2-0.3,0.5-0.5,0.9-0.5H60c0.5,0,0.9,0.2,1.1,0.6c0.1-0.2,0.2-0.4,0.4-0.5c0.2-0.1,0.4-0.2,0.7-0.2h0.3c0.4,0,0.7,0.1,0.9,0.3
		c0.2,0.2,0.3,0.5,0.3,0.9v3.1c0,0.1,0,0.1-0.1,0.1h-0.3c-0.1,0-0.1,0-0.1-0.1v-3.1c0-0.3-0.1-0.5-0.2-0.6C62.9,69,62.7,69,62.4,69
		h-0.3c-0.3,0-0.5,0.1-0.7,0.2c-0.2,0.2-0.2,0.4-0.2,0.7V73c0,0.1,0,0.1-0.1,0.1h-0.3c-0.1,0-0.1,0-0.1-0.1v-3.1
		c0-0.3-0.1-0.5-0.2-0.6c-0.1-0.2-0.3-0.2-0.6-0.2h-0.4c-0.3,0-0.5,0.1-0.7,0.2s-0.2,0.4-0.2,0.6V73C58.7,73.1,58.6,73.2,58.6,73.2z
		"/>
</g>
<g class="st0">
	<path class="st1" d="M66.6,73.2H66c-0.4,0-0.7-0.1-0.9-0.3c-0.2-0.2-0.3-0.5-0.3-0.9v-2c0-0.4,0.1-0.7,0.3-0.9
		c0.2-0.2,0.5-0.3,0.9-0.3h1.9c0.1,0,0.1,0,0.1,0.1v4.3c0,0.1,0,0.1-0.1,0.1h-0.3c-0.1,0-0.1,0-0.1-0.1v-0.4l0,0
		C67.4,73,67.1,73.2,66.6,73.2z M67.6,71.9v-2.8c0-0.1,0-0.1-0.1-0.1h-1.4c-0.3,0-0.5,0.1-0.6,0.2s-0.2,0.4-0.2,0.6v2
		c0,0.3,0.1,0.5,0.2,0.6s0.3,0.2,0.6,0.2h0.6c0.3,0,0.5-0.1,0.7-0.2S67.6,72.2,67.6,71.9z"/>
	<path class="st1" d="M69.7,73.2h-0.3c-0.1,0-0.1,0-0.1-0.1v-4.3c0-0.1,0-0.1,0.1-0.1h0.3c0.1,0,0.1,0,0.1,0.1v0.4l0,0
		c0.2-0.3,0.5-0.5,0.9-0.5h0.6c0.4,0,0.7,0.1,0.9,0.3c0.2,0.2,0.3,0.5,0.3,0.9V73c0,0.1,0,0.1-0.1,0.1h-0.3c-0.1,0-0.1,0-0.1-0.1
		v-3.1c0-0.3-0.1-0.5-0.2-0.6s-0.3-0.2-0.6-0.2h-0.6c-0.3,0-0.5,0.1-0.7,0.2s-0.2,0.4-0.2,0.6V73C69.8,73.1,69.8,73.2,69.7,73.2z"/>
</g>
<g class="st0">
	<path class="st1" d="M74.2,73.2h-0.3c-0.1,0-0.1,0-0.1-0.1v-4.3c0-0.1,0-0.1,0.1-0.1h0.3c0.1,0,0.1,0,0.1,0.1v0.4l0,0
		c0.2-0.3,0.5-0.5,0.9-0.5h0.6c0.4,0,0.7,0.1,0.9,0.3c0.2,0.2,0.3,0.5,0.3,0.9V73c0,0.1,0,0.1-0.1,0.1h-0.3c-0.1,0-0.1,0-0.1-0.1
		v-3.1c0-0.3-0.1-0.5-0.2-0.6s-0.3-0.2-0.6-0.2h-0.6c-0.3,0-0.5,0.1-0.7,0.2s-0.2,0.4-0.2,0.6V73C74.3,73.1,74.2,73.2,74.2,73.2z"/>
</g>
<g class="st0">
	<path class="st1" d="M10.4,53.5H9.8c-0.3,0-0.4,0.1-0.5,0.2v7.9c0.9,0,1.4-0.1,1.4-0.1c1,0,1.5,0.2,1.5,0.7v0.1
		c-0.1,0.2-0.3,0.4-0.6,0.5c-0.3,0.1-0.5,0.2-0.8,0.2s-0.5,0-0.8,0H9.2c-0.6,0-1-0.1-1.2-0.4c-0.1-0.1-0.1-0.3-0.1-0.5V47.3
		c0-0.3-0.1-0.7-0.2-1.3s-0.2-1-0.2-1.3v-0.1c0.3-0.5,0.5-0.8,0.6-0.9l1.9-0.2c0.3,0,0.5,0.1,0.8,0.2c0.3,0.2,0.4,0.4,0.4,0.6
		c0,0.5-0.4,0.8-1.2,0.8H9.3c-0.1,0-0.2,0-0.3,0l0.2,4.2c0,0.3,0,0.8-0.1,1.5c0,0.7-0.1,1.1-0.1,1.4c0.1,0,0.2,0,0.4-0.1
		C9.8,52,10,52,10.2,52c0.2,0,0.4,0.1,0.5,0.2c0.2,0.1,0.2,0.3,0.2,0.5s-0.1,0.4-0.2,0.5C10.7,53.4,10.6,53.5,10.4,53.5z"/>
</g>
<g class="st0">
	<path class="st1" d="M13,56.7v-1.5v-0.6c0-2.5,0.1-4.3,0.4-5.3c0.3-1.2,0.7-2.1,1.3-2.5c0.7-0.7,1.6-1,2.8-1c0.3,0,0.5,0.1,0.6,0.2
		c0.1,0.1,0.2,0.3,0.2,0.5s-0.1,0.3-0.2,0.5s-0.2,0.2-0.4,0.2h-1.2c-0.4,0-0.7,0.2-0.9,0.7c-0.3,0.5-0.4,1-0.6,1.7
		c-0.2,1.2-0.3,2.3-0.3,3.1v0.1l-0.2,4.8c0,1,0.1,1.8,0.2,2.2c0.1,0.4,0.2,0.7,0.4,1s0.3,0.4,0.4,0.6c0.4,0.4,0.9,0.6,1.5,0.6
		c0.2,0,0.4-0.1,0.6-0.2c0.2,0,0.4,0,0.5,0.1s0.2,0.2,0.2,0.4c0,0.7-0.5,1-1.4,1c-0.4,0-0.8-0.1-1.2-0.2c-0.4-0.1-0.7-0.2-0.9-0.4
		C13.6,62,13,60,13,56.7z"/>
</g>
<g class="st0">
	<path class="st1" d="M21.2,47.4l-0.1,6.4c0.3,0.1,0.8,0.1,1.4,0.1h0.9c0-0.1,0.1-0.4,0.1-0.8c0-0.5-0.1-1.5-0.2-3.1
		c-0.1-1.6-0.2-2.8-0.2-3.7c0-0.2,0.1-0.4,0.2-0.5c0.2-0.1,0.3-0.2,0.4-0.2s0.2,0,0.3,0s0.2,0.1,0.3,0.1s0.2,0.1,0.2,0.1
		c0,2.2,0.1,5.5,0.2,9.7c0.2,4.3,0.2,6.5,0.2,6.6s-0.1,0.3-0.3,0.4s-0.4,0.2-0.6,0.2c-0.2,0-0.4-0.2-0.5-0.5s-0.2-0.8-0.3-1.4
		c0-0.6-0.1-1.2-0.1-1.7c0-0.2,0-0.4,0-0.7c0-0.4,0-0.8,0-1.2c0-0.8,0-1.3,0-1.4v-0.1V55l-0.2-0.2l0,0c-0.1,0-0.3,0-0.5,0l-1.7-0.2
		v2.9l0.2,4.2c0,0.2-0.1,0.5-0.2,0.6c-0.1,0.2-0.3,0.3-0.5,0.3c-0.3,0-0.6-0.3-0.7-0.9s-0.2-1.5-0.2-2.5l0.1-3.9c0-0.8,0-1.3,0-1.3
		v-0.1c0.1-0.9,0.1-1.4,0.1-1.5l-0.2-5.8c0-0.2,0.1-0.4,0.2-0.5c0.1-0.2,0.3-0.2,0.5-0.2C20.9,45.9,21.2,46.4,21.2,47.4z"/>
</g>
<g class="st0">
	<path class="st1" d="M29.1,62.5l-0.1-2c0,0,0-0.3,0-0.9c-0.1-0.2-0.2-2.1-0.4-5.8s-0.3-5.9-0.3-6.7h-0.1c-1.4,0-2.1-0.3-2.1-0.8
		c0-0.2,0.1-0.3,0.3-0.4c0.2-0.1,0.4-0.2,0.5-0.2l3.5,0.2h0.4c0.5,0,0.8,0.2,0.8,0.6c0,0.2-0.1,0.4-0.3,0.5s-0.4,0.2-0.6,0.2
		L29.5,47l0.1,0.5c0,1.6,0.1,4,0.4,7.3c0.3,3.2,0.4,5.7,0.4,7.3c0,0.2-0.1,0.4-0.3,0.5s-0.4,0.2-0.6,0.2L29.1,62.5z"/>
</g>
<g class="st0">
	<path class="st1" d="M36.4,56.1l-0.2-10.4v-0.2c0-0.9,0.1-1.5,0.4-1.8c0.1-0.1,0.3-0.2,0.5-0.2c1.2,0,2.2,0.4,2.9,1.2s1,1.8,1,3
		c0,0.8-0.2,1.6-0.6,2.4c-0.4,0.8-0.9,1.5-1.5,1.9c1,0.7,1.8,1.6,2.2,2.7c0.4,1.1,0.7,2.2,0.7,3.4c0,0.6-0.2,1.3-0.5,1.9
		c-0.3,0.7-0.6,1.2-0.9,1.6c-0.3,0.4-0.7,0.7-1.2,1S38.1,63,37.5,63h0c-0.8,0-1.2-0.2-1.2-0.6L36.4,56.1z M38,45.1
		c-0.2,0-0.4,0.3-0.4,0.9c0,0.6,0,1.6,0,2.9s0.1,2.3,0.1,2.9c0.4-0.1,0.8-0.5,1.1-1.1c0.3-0.5,0.5-1,0.6-1.5s0.3-0.8,0.3-0.9v-0.9
		c0-0.5-0.2-1-0.6-1.5C38.9,45.3,38.5,45.1,38,45.1z M39.8,60.6c0.5-0.7,0.7-1.4,0.7-2.3c0-0.9-0.1-1.6-0.2-2.2
		c-0.1-0.6-0.3-1.1-0.5-1.5c-0.2-0.3-0.4-0.6-0.6-0.8c-0.3-0.3-0.5-0.5-0.7-0.5h-0.9c0.1,2.4,0.1,5.2,0.1,8.5
		C38.7,61.6,39.4,61.2,39.8,60.6z"/>
</g>
<g class="st0">
	<path class="st1" d="M46,54.3l0.1,5.4v0.8v0.7h0.3h0.7c0.7,0,1.1,0.2,1.1,0.6c0,0.2-0.1,0.4-0.3,0.6c-0.2,0.2-0.4,0.2-0.6,0.2h-1.1
		c-0.8,0-1.3,0-1.5-0.1c-0.1,0-0.2,0-0.3,0c-0.6,0-0.9-0.2-0.9-0.6c0-0.2,0.1-0.3,0.2-0.5c0.1-0.1,0.2-0.2,0.3-0.2h0.7l0.1-0.3
		l-0.2-5.5l0.1-5.7c0-1,0-1.9-0.1-2.8h-0.5h-0.6c-0.3,0-0.4,0-0.6-0.1c-0.1-0.1-0.2-0.3-0.2-0.5c0-0.4,0.4-0.6,1.3-0.6h3.1
		c0.7,0,1,0.2,1,0.5c0,0.2-0.1,0.3-0.2,0.4s-0.3,0.2-0.5,0.2h-1.3c0.1,0.7,0.1,1.5,0.1,2.4L46,54.3z"/>
</g>
<g class="st0">
	<path class="st1" d="M49.1,55v-1c0-0.1,0-0.1,0-0.1v-0.4c0-2.7,0.2-4.6,0.5-5.7c0.3-1,0.5-1.6,0.8-1.8c0.2-0.2,0.5-0.3,0.7-0.3
		c2,0,3.4,1,4.1,3c0.4,1.2,0.7,2.6,0.7,4.3v0.2v2.9c0,4.9-1.1,7.4-3.4,7.4c-0.9,0-1.7-0.5-2.2-1.6c-0.5-1-0.8-2-0.9-3
		C49.2,57.4,49.1,56.1,49.1,55z M50.7,51.5l-0.2,2.4c0,2.5,0.2,4.6,0.6,6.5c0.4,1.1,0.8,1.7,1.2,1.9c0.3,0,0.6-0.1,0.8-0.4
		c0.3-0.2,0.4-0.6,0.6-1c0.1-0.4,0.3-0.9,0.4-1.3c0.1-0.5,0.2-1,0.2-1.5c0.1-0.9,0.1-1.7,0.1-2.3s-0.1-1.6-0.2-3s-0.2-2.3-0.2-3
		v-0.5c0-0.6-0.2-1.2-0.6-1.7s-0.9-0.7-1.5-0.7s-1,0.3-1.2,1c-0.2,0.6-0.2,1.2-0.2,2L50.7,51.5z"/>
</g>
<g class="st0">
	<path class="st1" d="M63.7,57.7l0.1,2.7c0,0.8-0.3,1.5-0.9,1.9S61.6,63,60.8,63c-1.2,0-2-0.4-2.6-1.3c-0.4-0.6-0.6-1.2-0.7-1.8
		s-0.2-1-0.2-1.3s-0.1-0.7-0.1-1.2c0-0.7,0-1.3,0-1.7v-1.1c0-2.4,0.1-3.9,0.2-4.6c0.1-0.6,0.3-1.2,0.5-1.8s0.4-1,0.7-1.3
		c0.6-0.7,1.4-1.1,2.2-1.1c0.8,0,1.3,0.2,1.3,0.7c0,0.2-0.1,0.4-0.2,0.5c-0.2,0.1-0.4,0.2-0.6,0.2l-0.5-0.1c-0.6,0-1,0.6-1.3,1.8
		c-0.4,1.7-0.7,3.7-0.7,6.1c0,1.6,0.1,2.7,0.2,3.3s0.2,1.1,0.3,1.5c0.1,0.4,0.3,0.8,0.4,1c0.4,0.6,0.9,0.9,1.5,0.9
		c0.8,0,1.2-1.4,1.2-4.1v-1.1c-0.1-0.1-0.3-0.1-0.6-0.1h-0.5c-0.6,0-0.9-0.2-0.9-0.6c0-0.2,0.1-0.4,0.3-0.6c0.2-0.1,0.4-0.2,0.6-0.2
		l0,0h0.4c1.5,0,2.3,0.3,2.3,0.8L63.7,57.7z"/>
</g>
<g class="st0">
	<path class="st1" d="M71.2,57.7l0.3,1.6c0,0.2,0.1,0.7,0.2,1.5c0.2,0.8,0.2,1.3,0.2,1.6l0,0c0,0.4-0.1,0.6-0.4,0.7
		c-0.4,0-0.6-0.1-0.8-0.2s-0.3-0.3-0.3-0.7c0-0.7-0.1-1.8-0.4-3.2l-2.5-0.3c-0.2,0.6-0.3,1.2-0.4,1.9s-0.2,1.2-0.2,1.5
		c-0.2,0.6-0.4,1-0.8,1c-0.2,0-0.4-0.1-0.6-0.2c-0.2-0.1-0.3-0.3-0.3-0.5l0.1-0.2c1.2-4.5,2-8.8,2.6-13c0-0.1,0-0.5,0.1-1
		c0.1-1.3,0.2-2.1,0.5-2.4h0.9c0.2,0,0.4,0.1,0.6,0.2c0.2,0.1,0.3,0.3,0.3,0.5c0,1.3,0.2,3.2,0.5,5.8C71,54.7,71.2,56.5,71.2,57.7z
		 M69.8,58.2c0-0.2-0.1-0.7-0.1-1.3s0-1.4-0.1-2.3c-0.1-0.9-0.2-2-0.3-3.2c-0.1-1.2-0.2-2.1-0.3-2.7c-0.8,4.3-1.3,7.3-1.5,9.1
		C67.9,58,68.6,58.1,69.8,58.2z"/>
</g>
<g class="st0">
	<path class="st1" d="M73.5,61.8l1.1,0.2c0.3,0,0.6-0.1,0.9-0.4s0.4-0.6,0.5-1.1c0.2-0.8,0.3-1.5,0.3-2.2S76.2,57,76,56.4
		s-0.5-1.2-0.8-1.7s-0.6-1.1-0.9-1.6c-0.7-1.3-1.1-2.6-1.1-3.8c0-0.8,0.1-1.4,0.4-2c0.5-1.1,1.1-1.7,1.9-1.7c0.3,0,0.6,0.1,0.9,0.3
		s0.4,0.4,0.4,0.6c0,0.4-0.2,0.6-0.6,0.6c-0.2,0-0.4,0-0.5-0.2c-0.5,0-0.9,0.6-1.1,1.8c0,0.3-0.1,0.6-0.1,0.9c0,0.3,0.1,0.8,0.2,1.3
		c0.2,0.5,0.3,1,0.6,1.4c0.2,0.4,0.5,0.8,0.7,1.3c0.3,0.5,0.5,0.9,0.7,1.4c0.5,1,0.8,2.2,0.8,3.6c0,1-0.2,2-0.7,3
		c-0.2,0.5-0.6,0.8-1,1.1s-0.9,0.4-1.5,0.5v0.1c-0.7-0.1-1.1-0.4-1.2-1L73.5,61.8z"/>
</g>
<g id="Logo_2_">
	<path d="M42.5,41.4c7.8,0,14.2-6.3,14.2-14.2c0-7.8-6.3-14.2-14.2-14.2s-14.2,6.3-14.2,14.2C28.3,35.1,34.7,41.4,42.5,41.4"/>
	<circle class="st2" cx="42.5" cy="27.3" r="14.2"/>
	<path class="st3" d="M42.7,14.4c1.1,0,2-0.9,2-2s-0.9-2-2-2s-2,0.9-2,2S41.6,14.4,42.7,14.4"/>
	<circle class="st2" cx="42.7" cy="12.4" r="2"/>
	<path class="st3" d="M47.7,20.3c0.8,0,1.5-0.7,1.5-1.5c0-0.8-0.7-1.5-1.5-1.5s-1.5,0.7-1.5,1.5C46.2,19.7,46.9,20.3,47.7,20.3"/>
	<path class="st2" d="M47.7,20.3c0.8,0,1.5-0.7,1.5-1.5c0-0.8-0.7-1.5-1.5-1.5s-1.5,0.7-1.5,1.5C46.2,19.7,46.9,20.3,47.7,20.3z"/>
	<path class="st3" d="M35,23.5c1,0,1.9-0.8,1.9-1.9c0-1-0.8-1.9-1.9-1.9c-1,0-1.9,0.8-1.9,1.9S34,23.5,35,23.5"/>
	<circle class="st2" cx="35" cy="21.6" r="1.9"/>
	<path class="st4" d="M42.3,20.7c0.2,1.7-0.1,4.5-1.7,6.7c-0.1,0.1-0.2,0.1-0.3,0.2c-0.2,0-0.4,0-0.6-0.1c-0.1-0.1-0.3-0.2-0.3-0.4
		c0.1-1-0.2-1.8-0.5-2.3c-0.2,0.9-0.7,2.2-1.6,3.6c-0.6,1-1.3,2.1-1.5,3.3c-0.1,0.4-0.1,0.7-0.1,1.1c0.2,2.8,3.4,4.9,7.1,4.6h0.3
		c2,0,3.5-0.7,4.9-2.2c1.4-1.5,1.3-3.5,1.1-4.9C48.5,26.6,45.6,22.7,42.3,20.7z"/>
	<path class="st3" d="M49.1,29.5c1.1,0,2-0.9,2-2s-0.9-2-2-2s-2,0.9-2,2C47,28.6,47.9,29.5,49.1,29.5"/>
	<circle class="st2" cx="49.1" cy="27.5" r="2"/>
</g>
</svg>
